<svg width="990" height="284" viewBox="0 0 990 284" fill="none" xmlns="http://www.w3.org/2000/svg">
<path d="M128 270C57.3075 270 0 212.692 0 142C6.53295e-05 71.9981 56.1935 15.1208 125.932 14.0164C127.297 13.9948 128.661 14.2148 129.959 14.6366C141.934 18.5287 141.934 35.4713 129.959 39.3635C128.661 39.7852 127.298 39.9931 125.934 40.0213C71.6591 41.1436 28.0001 86.3713 28 142C28 198.333 72.7715 244 128 244C182.476 244 226.778 199.569 227.975 144.297C228.008 142.781 228.247 141.267 228.731 139.83C232.95 127.306 250.643 127.249 255.154 139.671C255.712 141.206 256.007 142.844 255.977 144.477C254.656 214.026 197.865 270 128 270Z" fill="#28252D"/>
<path d="M78.9455 164.946C78.9455 164.946 85.0805 143.747 97.8264 146.065C101.111 146.663 104.526 148.143 107.787 150.222C104.355 152.287 102.409 157.95 102.409 157.95L99.9611 168.815C99.6384 170.248 100.919 171.529 102.352 171.206L113.217 168.758C113.217 168.758 118.88 166.811 120.945 163.378C123.024 166.64 124.505 170.056 125.103 173.342C126.714 182.2 116.966 187.865 110.869 190.497C107.851 191.8 104.547 192.144 101.263 191.99C93.0886 191.608 84.929 193.016 77.3556 196.116L75.2902 196.962C74.4893 197.29 73.6394 196.61 73.7824 195.757L78.9455 164.946Z" fill="#28252D"/>
<path d="M236.424 14.1206C247.665 12.8138 257.184 22.3606 255.881 33.6352C253.502 54.2144 239.906 68.5724 226.246 84.1128L174.393 143.105L184.02 174.905L163.28 198.5L140.018 175.698L139.353 157L112.49 130.166H95.0889L72 107.04L95.5254 86.2348L127.291 96.3344L186.109 43.8276C201.604 30.1275 215.905 16.5066 236.424 14.1206ZM203.5 52.5004C195.216 52.5004 188.5 59.2162 188.5 67.5004C188.5 75.7846 195.216 82.5004 203.5 82.5004C211.784 82.5004 218.5 75.7846 218.5 67.5004C218.5 59.2162 211.784 52.5004 203.5 52.5004Z" fill="#28252D"/>
<path d="M358.266 235.072C343.247 235.072 331.557 231.744 323.194 225.088C314.831 218.261 310.65 208.533 310.65 195.904C310.65 182.421 315.002 172.352 323.706 165.696C332.41 159.04 344.613 155.712 360.314 155.712H391.546C390.693 149.056 388.645 143.851 385.402 140.096C382.33 136.171 377.295 134.208 370.298 134.208C365.519 134.208 361.338 135.317 357.754 137.536C354.17 139.755 351.098 142.741 348.538 146.496L313.466 134.976C316.538 128.661 320.549 122.944 325.498 117.824C330.618 112.704 336.847 108.608 344.186 105.536C351.525 102.464 360.058 100.928 369.786 100.928C383.098 100.928 394.362 103.403 403.578 108.352C412.794 113.301 419.706 120.213 424.314 129.088C428.922 137.963 431.226 148.459 431.226 160.576L430.714 232H393.338L392.826 218.944C389.242 224.235 384.549 228.245 378.746 230.976C372.943 233.707 366.117 235.072 358.266 235.072ZM367.226 204.864C372.175 204.864 376.442 203.84 380.026 201.792C383.781 199.744 386.682 197.013 388.73 193.6C390.949 190.016 392.058 186.176 392.058 182.08V181.568H375.162C366.799 181.568 360.741 182.763 356.986 185.152C353.231 187.371 351.354 190.613 351.354 194.88C351.354 197.952 352.719 200.427 355.45 202.304C358.351 204.011 362.277 204.864 367.226 204.864ZM444.036 283.2V104H481.668L483.204 120.384C487.3 114.069 492.42 109.291 498.564 106.048C504.879 102.635 512.132 100.928 520.324 100.928C532.271 100.928 542.596 103.659 551.3 109.12C560.004 114.411 566.66 122.091 571.268 132.16C575.876 142.059 578.18 154.005 578.18 168C578.18 181.824 575.876 193.771 571.268 203.84C566.66 213.909 560.004 221.675 551.3 227.136C542.596 232.427 532.271 235.072 520.324 235.072C512.303 235.072 505.22 233.536 499.076 230.464C493.103 227.221 488.068 222.613 483.972 216.64V283.2H444.036ZM510.084 198.208C515.204 198.208 519.727 196.928 523.652 194.368C527.577 191.808 530.735 188.309 533.124 183.872C535.513 179.264 536.708 173.973 536.708 168C536.708 162.027 535.599 156.821 533.38 152.384C531.161 147.776 528.004 144.192 523.908 141.632C519.983 139.072 515.46 137.792 510.34 137.792C505.22 137.792 500.612 139.072 496.516 141.632C492.591 144.192 489.519 147.776 487.3 152.384C485.081 156.992 483.972 162.197 483.972 168C483.972 173.973 485.081 179.264 487.3 183.872C489.519 188.309 492.591 191.808 496.516 194.368C500.441 196.928 504.964 198.208 510.084 198.208ZM657.148 235.072C643.665 235.072 631.804 232.256 621.564 226.624C611.324 220.821 603.217 212.885 597.244 202.816C591.441 192.747 588.54 181.141 588.54 168C588.54 154.859 591.356 143.253 596.988 133.184C602.791 123.115 610.812 115.264 621.052 109.632C631.463 103.829 643.239 100.928 656.38 100.928C669.863 100.928 681.724 103.829 691.964 109.632C702.375 115.264 710.396 123.115 716.028 133.184C721.831 143.253 724.732 154.859 724.732 168C724.732 181.141 721.831 192.747 716.028 202.816C710.396 212.885 702.46 220.821 692.22 226.624C681.98 232.256 670.289 235.072 657.148 235.072ZM657.148 198.208C662.268 198.208 666.791 196.928 670.716 194.368C674.812 191.808 677.969 188.309 680.188 183.872C682.577 179.264 683.772 173.973 683.772 168C683.772 162.027 682.577 156.821 680.188 152.384C677.969 147.776 674.812 144.192 670.716 141.632C666.62 139.072 661.927 137.792 656.636 137.792C651.345 137.792 646.652 139.072 642.556 141.632C638.46 144.192 635.217 147.776 632.828 152.384C630.609 156.821 629.5 162.027 629.5 168C629.5 173.973 630.609 179.264 632.828 183.872C635.217 188.309 638.46 191.808 642.556 194.368C646.823 196.928 651.687 198.208 657.148 198.208ZM736.516 232V52.8H776.452V232H736.516ZM794.836 232V52.8H834.772V232H794.836ZM915.108 235.072C901.625 235.072 889.764 232.256 879.524 226.624C869.284 220.821 861.177 212.885 855.204 202.816C849.401 192.747 846.5 181.141 846.5 168C846.5 154.859 849.316 143.253 854.948 133.184C860.751 123.115 868.772 115.264 879.012 109.632C889.423 103.829 901.199 100.928 914.34 100.928C927.823 100.928 939.684 103.829 949.924 109.632C960.335 115.264 968.356 123.115 973.988 133.184C979.791 143.253 982.692 154.859 982.692 168C982.692 181.141 979.791 192.747 973.988 202.816C968.356 212.885 960.42 220.821 950.18 226.624C939.94 232.256 928.249 235.072 915.108 235.072ZM915.108 198.208C920.228 198.208 924.751 196.928 928.676 194.368C932.772 191.808 935.929 188.309 938.148 183.872C940.537 179.264 941.732 173.973 941.732 168C941.732 162.027 940.537 156.821 938.148 152.384C935.929 147.776 932.772 144.192 928.676 141.632C924.58 139.072 919.887 137.792 914.596 137.792C909.305 137.792 904.612 139.072 900.516 141.632C896.42 144.192 893.177 147.776 890.788 152.384C888.569 156.821 887.46 162.027 887.46 168C887.46 173.973 888.569 179.264 890.788 183.872C893.177 188.309 896.42 191.808 900.516 194.368C904.783 196.928 909.647 198.208 915.108 198.208Z" fill="#28252D"/>
</svg>
