<svg width="513" height="512" viewBox="0 0 513 512" fill="none" xmlns="http://www.w3.org/2000/svg">
<path d="M256 512C114.615 512 0 397.385 0 256C0.000130659 115.996 112.387 2.24137 251.865 0.0324797C254.593 -0.0107334 257.322 0.429396 259.917 1.27289C283.869 9.05725 283.869 42.9424 259.917 50.7267C257.322 51.5701 254.595 51.986 251.867 52.0424C143.318 54.2869 56.0001 144.742 56 256C56 368.666 145.543 460 256 460C364.952 460 453.556 371.138 455.95 260.594C456.016 257.562 456.494 254.534 457.462 251.66C465.9 226.612 501.287 226.498 510.308 251.341C511.423 254.411 512.015 257.689 511.953 260.954C509.313 400.052 395.73 512 256 512Z" fill="#28252D"/>
<path d="M157.891 301.892C157.901 301.859 170.17 259.496 195.652 264.131C202.222 265.327 209.052 268.286 215.576 272.443C208.726 276.563 204.837 287.846 204.819 287.899L199.226 312.716C198.904 314.149 200.185 315.43 201.618 315.107L226.434 309.514C226.465 309.504 237.767 305.613 241.89 298.755C246.049 305.281 249.009 312.113 250.205 318.684C253.427 336.401 233.93 347.731 221.738 352.994C215.701 355.599 209.093 356.288 202.525 355.981C186.176 355.216 169.858 358.033 154.712 364.233L150.234 366.066C148.784 366.66 147.245 365.43 147.504 363.884L157.891 301.892Z" fill="#28252D"/>
<path d="M472.847 0.240502C495.33 -2.37372 514.367 16.7202 511.761 39.2698C507.003 80.4283 479.811 109.144 452.491 140.225L348.786 258.209L368.04 321.81L326.56 369L280.035 323.395L278.705 286L224.98 232.332H190.178L144 186.08L191.05 144.47L254.582 164.668L372.219 59.6555C403.208 32.2552 431.81 5.01252 472.847 0.240502ZM407 77.0003C390.431 77.0003 377 90.4317 377 107C377 123.569 390.432 137 407 137C423.568 137 437 123.569 437 107C437 90.4317 423.569 77.0003 407 77.0003Z" fill="#28252D"/>
</svg>
